<svg xmlns="http://www.w3.org/2000/svg" viewBox="0 0 682.67 682.67">
  <g transform="translate(-87.77,13.02)">
    <path fill="#0172bb" d="M510.68 657.13c-73.8-10.75-127.9-64.94-138.85-139.1-2.31-15.63-1.99-42.11.69-56.75.74-4.03 4.67-26.23 8.74-49.33 4.07-23.1 11.3-64.08 16.06-91.06 4.76-26.98 9.56-50.8 10.66-52.93 1.1-2.13 4.21-5.55 6.9-7.61l4.9-3.74h144.55 144.55l3.89 4.36c7.26 8.12 4.29 20.56-6.67 27.95-4.49 3.02-4.62 3.03-56.64 3.03-56.63 0-68.12.86-91.15 6.77-54.67 14.04-106.67 56.89-132.29 109.02-31.61 64.29-23.7 132.95 20.3 176.26 42.19 41.53 108.49 50.31 165.15 21.88 51.72-25.95 86.53-85.11 78-132.55-6.8-37.82-38.98-63.92-78.93-64.02-39.1-.09-78.01 31.4-86.62 70.13-7.1 31.9 10.08 57.14 41.2 60.56 7.88.86 9.98 1.63 12.5 4.57 3.52 4.09 3.81 7.36 1.11 12.58-3.57 6.89-7.86 8.57-19.96 7.78-24.84-1.63-44.43-14.55-55.31-36.5-14.71-29.66-4.24-73.55 25.05-104.98 14.44-15.5 40.51-31.09 60.81-36.37 12.63-3.28 40.39-3.23 52.66.1 40.7 11.04 67.39 40.88 73.42 82.1 4.17 28.53-5.99 69.31-24.77 99.45-27.92 44.8-76.26 78.13-127.37 87.83-11.83 2.24-39.1 2.54-52.58.58zm-202.94-183.13c-2.34-1.02-5.26-3.81-6.5-6.2-1.97-3.81-2.06-5.7-.75-15.1 9.84-70.44-25.97-131.73-89.2-152.68-12.57-4.17-24.2-6.37-39.3-7.45-7.33-.52-14.85-1.72-16.71-2.67-4.94-2.52-7.1-7.45-6.31-14.42.86-7.65 5.33-13.86 12.23-16.99 5.16-2.35 10.7-2.48 100.8-2.51 92.17-.02 95.47.06 99.59 2.58 8.78 5.35 9.03 2.52-9.48 107.06-9.19 51.88-17.56 95.98-18.61 98-2.62 5.03-7.29 9.01-12.7 10.82-5.74 1.92-7.79 1.86-13.05-.44zm117.32-257c-2.96-1.43-7.07-8.48-7.07-12.13 0-5.87 33.75-191.23 35.4-194.42 3.14-6.07 10.85-10.53 18.22-10.53 5.12 0 7.17.75 10.69 3.9 4.31 3.86 4.35 4 3.72 13.67-.35 5.37-.63 19.37-.6 31.1.03 17.9.52 23.15 3.06 32.67 6.83 25.54 16.9 43.5 34.1 60.84 18.72 18.87 37.96 29.84 64.14 36.55 10.59 2.72 16.22 3.15 49.94 3.83 41.72.85 42.19.94 46.09 9.16 2.51 5.29 1.63 10.93-2.76 17.74-6.29 9.75 1.41 9.22-132.2 9.12-81.6-.06-120.73-.55-122.73-1.51z"/>
  </g>
</svg>
